<svg preserveAspectRatio="none" overflow="visible" style="display: block;" width="16" height="16" viewBox="0 0 16 16" fill="none" xmlns="http://www.w3.org/2000/svg">
<g id="scales-01">
<path id="Icon" d="M14.6667 10V9.89987C14.6667 9.68888 14.6667 9.58338 14.6505 9.4806C14.6362 9.38934 14.6124 9.29982 14.5796 9.21348C14.5426 9.11623 14.4903 9.02463 14.3856 8.84144L12 4.66667L4 6L1.61441 10.1748C1.50973 10.358 1.45739 10.4496 1.42041 10.5468C1.38757 10.6332 1.3638 10.7227 1.34947 10.8139C1.33333 10.9167 1.33333 11.0222 1.33333 11.2332V11.3333M1.33333 11.3333C1.33333 12.8061 2.52724 14 4 14C5.47276 14 6.66667 12.8061 6.66667 11.3333M1.33333 11.3333V11.2C1.33333 11.0133 1.33333 10.92 1.36966 10.8487C1.40162 10.7859 1.45262 10.735 1.51534 10.703C1.58664 10.6667 1.67998 10.6667 1.86667 10.6667H6.13333C6.32002 10.6667 6.41336 10.6667 6.48466 10.703C6.54738 10.735 6.59838 10.7859 6.63034 10.8487C6.66667 10.92 6.66667 11.0133 6.66667 11.2V11.3333M4 6L6.38559 10.1748C6.49027 10.358 6.54261 10.4496 6.57959 10.5468C6.61243 10.6332 6.6362 10.7227 6.65053 10.8139C6.66667 10.9167 6.66667 11.0222 6.66667 11.2332V11.3333M9.33333 10V9.89987C9.33333 9.68888 9.33333 9.58338 9.34947 9.4806C9.3638 9.38934 9.38757 9.29982 9.42041 9.21348C9.45739 9.11623 9.50973 9.02463 9.61442 8.84144L12 4.66667M9.33333 10C9.33333 11.4728 10.5272 12.6667 12 12.6667C13.4728 12.6667 14.6667 11.4728 14.6667 10M9.33333 10V9.86667C9.33333 9.67998 9.33333 9.58664 9.36966 9.51534C9.40162 9.45262 9.45262 9.40162 9.51534 9.36966C9.58664 9.33333 9.67998 9.33333 9.86667 9.33333H14.1333C14.32 9.33333 14.4134 9.33333 14.4847 9.36966C14.5474 9.40162 14.5984 9.45262 14.6303 9.51534C14.6667 9.58664 14.6667 9.67998 14.6667 9.86667V10M8 2V5.33333" stroke="#64748B" stroke-linecap="round" stroke-linejoin="round"/>
</g>
</svg>
